<svg width="36" height="36" viewBox="0 0 36 36" fill="none" xmlns="http://www.w3.org/2000/svg">
<circle cx="18" cy="18" r="18" fill="#D9D9D9"/>
<rect width="18" height="18" transform="translate(9 9)" fill="#D9D9D9"/>
<path d="M17.25 18.75H13.5C13.2875 18.75 13.1094 18.6781 12.9656 18.5344C12.8219 18.3906 12.75 18.2125 12.75 18C12.75 17.7875 12.8219 17.6094 12.9656 17.4656C13.1094 17.3219 13.2875 17.25 13.5 17.25H17.25V13.5C17.25 13.2875 17.3219 13.1094 17.4656 12.9656C17.6094 12.8219 17.7875 12.75 18 12.75C18.2125 12.75 18.3906 12.8219 18.5344 12.9656C18.6781 13.1094 18.75 13.2875 18.75 13.5V17.25H22.5C22.7125 17.25 22.8906 17.3219 23.0344 17.4656C23.1781 17.6094 23.25 17.7875 23.25 18C23.25 18.2125 23.1781 18.3906 23.0344 18.5344C22.8906 18.6781 22.7125 18.75 22.5 18.75H18.75V22.5C18.75 22.7125 18.6781 22.8906 18.5344 23.0344C18.3906 23.1781 18.2125 23.25 18 23.25C17.7875 23.25 17.6094 23.1781 17.4656 23.0344C17.3219 22.8906 17.25 22.7125 17.25 22.5V18.75Z" fill="#18162A"/>
</svg>
