<svg width="24" height="24" viewBox="0 0 24 24" fill="none" xmlns="http://www.w3.org/2000/svg">
<circle cx="12" cy="12" r="12" fill="#2F2C55"/>
<path d="M10 16.0007C9.63333 16.0007 9.31944 15.8701 9.05833 15.609C8.79722 15.3479 8.66667 15.034 8.66667 14.6673V6.66732C8.66667 6.30065 8.79722 5.98676 9.05833 5.72565C9.31944 5.46454 9.63333 5.33398 10 5.33398H16C16.3667 5.33398 16.6806 5.46454 16.9417 5.72565C17.2028 5.98676 17.3333 6.30065 17.3333 6.66732V14.6673C17.3333 15.034 17.2028 15.3479 16.9417 15.609C16.6806 15.8701 16.3667 16.0007 16 16.0007H10ZM7.33333 18.6673C6.96667 18.6673 6.65278 18.5368 6.39167 18.2757C6.13056 18.0145 6 17.7007 6 17.334V8.66732C6 8.47843 6.06389 8.3201 6.19167 8.19232C6.31944 8.06454 6.47778 8.00065 6.66667 8.00065C6.85556 8.00065 7.01389 8.06454 7.14167 8.19232C7.26944 8.3201 7.33333 8.47843 7.33333 8.66732V17.334H14C14.1889 17.334 14.3472 17.3979 14.475 17.5257C14.6028 17.6534 14.6667 17.8118 14.6667 18.0007C14.6667 18.1895 14.6028 18.3479 14.475 18.4757C14.3472 18.6034 14.1889 18.6673 14 18.6673H7.33333Z" fill="#D9D9D9"/>
</svg>
