<svg width="991" height="1024" viewBox="0 0 991 1024" fill="none" xmlns="http://www.w3.org/2000/svg">
<path opacity="0.05" d="M763.358 1045.15C774.59 1076.56 744.966 1107.24 713.18 1097.11L-553.116 693.702C-581.589 684.631 -590.632 648.811 -569.872 627.313L249.07 -220.725C269.831 -242.224 305.943 -234.436 316.003 -206.297L763.358 1045.15Z" stroke="url(#paint0_linear_15_25535)" stroke-width="5"/>
<path opacity="0.1" d="M755.219 1011.19C766.98 1040.78 739.742 1071.04 709.082 1062.43L-512.358 719.779C-539.822 712.074 -549.642 678.205 -530.554 657.005L222.436 -179.275C241.525 -200.475 276.235 -194.249 286.769 -167.741L755.219 1011.19Z" stroke="url(#paint1_linear_15_25535)" stroke-width="5"/>
<path opacity="0.14" d="M745.305 978.311C757.483 1006.09 732.563 1035.78 703.094 1028.61L-470.862 743.076C-497.259 736.655 -507.731 704.745 -490.267 683.932L198.633 -137.067C216.097 -157.88 249.341 -153.108 260.249 -128.227L745.305 978.311Z" stroke="url(#paint2_linear_15_25535)" stroke-width="5"/>
<path opacity="0.19" d="M733.68 946.59C746.164 972.557 723.489 1001.58 695.273 995.749L-428.773 763.575C-454.047 758.353 -465.048 728.404 -449.158 708.065L177.679 -94.2494C193.57 -114.589 225.291 -111.16 236.471 -87.8995L733.68 946.59Z" stroke="url(#paint3_linear_15_25535)" stroke-width="5"/>
<path opacity="0.23" d="M720.417 916.105C733.094 940.277 712.585 968.505 685.678 963.918L-386.235 781.261C-410.337 777.153 -421.743 749.162 -407.37 729.38L159.587 -50.9696C173.959 -70.752 204.106 -68.5543 215.46 -46.9014L720.417 916.105Z" stroke="url(#paint4_linear_15_25535)" stroke-width="5"/>
<path opacity="0.28" d="M705.586 886.931C718.348 909.329 699.921 936.648 674.373 933.206L-343.393 796.132C-366.278 793.049 -377.966 767.005 -365.052 747.859L144.36 -7.37544C157.274 -26.5211 185.801 -25.4405 197.232 -5.37719L705.586 886.931Z" stroke="url(#paint5_linear_15_25535)" stroke-width="5"/>
<path opacity="0.32" d="M689.264 859.14C702.004 879.789 685.568 906.091 661.425 903.692L-300.392 808.191C-322.018 806.042 -333.868 781.929 -322.35 763.496L131.998 36.3875C143.516 17.9549 170.384 18.0343 181.795 36.5304L689.264 859.14Z" stroke="url(#paint6_linear_15_25535)" stroke-width="5"/>
<path opacity="0.37" d="M671.529 832.801C684.142 851.731 669.603 876.912 646.904 875.454L-257.375 817.445C-277.707 816.14 -289.598 793.935 -279.41 776.288L122.492 80.173C132.681 62.5261 157.856 61.7215 169.153 78.6777L671.529 832.801Z" stroke="url(#paint7_linear_15_25535)" stroke-width="5"/>
<path opacity="0.41" d="M652.465 807.975C664.846 825.22 652.105 849.182 630.885 848.561L-214.484 823.907C-233.492 823.352 -245.307 803.028 -236.378 786.235L115.827 123.833C124.756 107.041 148.213 105.47 159.302 120.918L652.465 807.975Z" stroke="url(#paint8_linear_15_25535)" stroke-width="5"/>
<path opacity="0.46" d="M632.155 784.722C644.203 800.325 633.156 822.975 613.443 823.087L-171.862 827.603C-189.52 827.704 -201.143 809.226 -193.401 793.353L111.981 167.226C119.723 151.353 141.44 149.136 152.232 163.112L632.155 784.722Z" stroke="url(#paint9_linear_15_25535)" stroke-width="5"/>
<path opacity="0.5" d="M610.687 763.098C622.304 777.104 612.843 798.354 594.661 799.092L-129.65 828.558C-145.936 829.22 -157.253 812.547 -150.623 797.655L110.926 210.206C117.557 195.314 137.519 192.568 147.925 205.114L610.687 763.098Z" stroke="url(#paint10_linear_15_25535)" stroke-width="5"/>
<path opacity="0.55" d="M588.149 743.155C599.24 755.615 591.252 775.385 574.619 776.643L-87.9854 826.808C-102.884 827.935 -113.786 813.023 -108.188 799.169L112.626 252.634C118.224 238.779 136.424 235.625 146.359 246.786L588.149 743.155Z" stroke="url(#paint11_linear_15_25535)" stroke-width="5"/>
<path opacity="0.59" d="M564.634 724.941C575.106 735.909 568.476 754.124 553.404 755.795L-47.0052 822.394C-60.5055 823.891 -70.8829 810.689 -66.2367 797.924L117.041 294.371C121.688 281.606 138.123 278.163 147.503 287.988L564.634 724.941Z" stroke="url(#paint12_linear_15_25535)" stroke-width="5"/>
<path opacity="0.64" d="M540.234 708.496C549.998 718.032 544.607 734.624 531.103 736.6L-6.84439 815.361C-18.9403 817.132 -28.6889 805.583 -24.9108 793.956L124.123 335.278C127.901 323.65 142.576 320.037 151.321 328.579L540.234 708.496Z" stroke="url(#paint13_linear_15_25535)" stroke-width="5"/>
<path opacity="0.68" d="M515.047 693.861C524.016 702.03 519.741 716.937 507.806 719.111L32.3657 805.766C21.6753 807.714 12.6568 797.758 15.6524 787.311L133.817 375.223C136.812 364.776 149.737 361.111 157.77 368.428L515.047 693.861Z" stroke="url(#paint14_linear_15_25535)" stroke-width="5"/>
<path opacity="0.73" d="M489.167 681.069C497.259 687.938 493.977 701.104 483.606 703.37L70.4954 793.666C61.2064 795.696 53.0161 787.265 55.3166 778.038L146.064 414.072C148.364 404.845 159.554 401.246 166.803 407.399L489.167 681.069Z" stroke="url(#paint15_linear_15_25535)" stroke-width="5"/>
<path opacity="0.77" d="M462.693 670.15C469.831 675.792 467.413 687.169 458.597 689.42L107.419 779.127C99.5223 781.144 92.254 774.166 93.9487 766.193L160.797 451.698C162.491 443.725 171.969 440.307 178.363 445.361L462.693 670.15Z" stroke="url(#paint16_linear_15_25535)" stroke-width="5"/>
<path opacity="0.82" d="M435.725 661.127C441.833 665.618 440.15 675.163 432.874 677.294L143.012 762.218C136.495 764.127 130.239 758.528 131.418 751.839L177.944 487.974C179.124 481.285 186.918 478.163 192.39 482.186L435.725 661.127Z" stroke="url(#paint17_linear_15_25535)" stroke-width="5"/>
<path opacity="0.86" d="M408.362 654.021C413.372 657.441 412.292 665.119 406.534 667.026L177.158 743.017C172 744.725 166.842 740.423 167.598 735.042L197.43 522.78C198.186 517.399 204.33 514.685 208.817 517.749L408.362 654.021Z" stroke="url(#paint18_linear_15_25535)" stroke-width="5"/>
<path opacity="0.91" d="M380.707 648.847C384.551 651.279 383.943 657.063 379.677 658.643L209.738 721.605C205.917 723.02 201.938 719.93 202.364 715.877L219.168 555.997C219.594 551.944 224.129 549.749 227.572 551.928L380.707 648.847Z" stroke="url(#paint19_linear_15_25535)" stroke-width="5"/>
<path opacity="0.95" d="M352.86 645.616C355.478 647.147 355.207 651.015 352.402 652.167L240.643 698.07C238.13 699.102 235.408 697.136 235.597 694.425L243.073 587.512C243.263 584.802 246.233 583.234 248.578 584.606L352.86 645.616Z" stroke="url(#paint20_linear_15_25535)" stroke-width="5"/>
<path d="M324.924 644.332C326.259 645.052 326.191 646.989 324.809 647.614L269.765 672.501C268.527 673.061 267.132 672.126 267.18 670.768L269.05 617.214C269.097 615.856 270.554 615.021 271.75 615.666L324.924 644.332Z" stroke="url(#paint21_linear_15_25535)" stroke-width="5"/>
<defs>
<linearGradient id="paint0_linear_15_25535" x1="-42558" y1="45938" x2="-134038" y2="-42403.4" gradientUnits="userSpaceOnUse">
<stop stop-color="white"/>
<stop offset="1" stop-color="white"/>
</linearGradient>
<linearGradient id="paint1_linear_15_25535" x1="-39076.3" y1="45280.6" x2="-129288" y2="-35946.4" gradientUnits="userSpaceOnUse">
<stop stop-color="white"/>
<stop offset="1" stop-color="white"/>
</linearGradient>
<linearGradient id="paint2_linear_15_25535" x1="-35695" y1="44437.8" x2="-124258" y2="-29875.7" gradientUnits="userSpaceOnUse">
<stop stop-color="white"/>
<stop offset="1" stop-color="white"/>
</linearGradient>
<linearGradient id="paint3_linear_15_25535" x1="-32422.6" y1="43416.2" x2="-118970" y2="-24202.4" gradientUnits="userSpaceOnUse">
<stop stop-color="white"/>
<stop offset="1" stop-color="white"/>
</linearGradient>
<linearGradient id="paint4_linear_15_25535" x1="-29267.5" y1="42222.2" x2="-113446" y2="-18937" gradientUnits="userSpaceOnUse">
<stop stop-color="white"/>
<stop offset="1" stop-color="white"/>
</linearGradient>
<linearGradient id="paint5_linear_15_25535" x1="-26237.6" y1="40862.9" x2="-107707" y2="-14088.8" gradientUnits="userSpaceOnUse">
<stop stop-color="white"/>
<stop offset="1" stop-color="white"/>
</linearGradient>
<linearGradient id="paint6_linear_15_25535" x1="-23340.5" y1="39345.6" x2="-101776" y2="-9666.11" gradientUnits="userSpaceOnUse">
<stop stop-color="white"/>
<stop offset="1" stop-color="white"/>
</linearGradient>
<linearGradient id="paint7_linear_15_25535" x1="-20583.5" y1="37678.1" x2="-95675.2" y2="-5676.14" gradientUnits="userSpaceOnUse">
<stop stop-color="white"/>
<stop offset="1" stop-color="white"/>
</linearGradient>
<linearGradient id="paint8_linear_15_25535" x1="-17973.3" y1="35868.3" x2="-89428.4" y2="-2125.05" gradientUnits="userSpaceOnUse">
<stop stop-color="white"/>
<stop offset="1" stop-color="white"/>
</linearGradient>
<linearGradient id="paint9_linear_15_25535" x1="-15516.5" y1="33924.5" x2="-83058.4" y2="982.085" gradientUnits="userSpaceOnUse">
<stop stop-color="white"/>
<stop offset="1" stop-color="white"/>
</linearGradient>
<linearGradient id="paint10_linear_15_25535" x1="-13219.1" y1="31855.3" x2="-76588.7" y2="3641.26" gradientUnits="userSpaceOnUse">
<stop stop-color="white"/>
<stop offset="1" stop-color="white"/>
</linearGradient>
<linearGradient id="paint11_linear_15_25535" x1="-11086.7" y1="29669.4" x2="-70042.8" y2="5849.56" gradientUnits="userSpaceOnUse">
<stop stop-color="white"/>
<stop offset="1" stop-color="white"/>
</linearGradient>
<linearGradient id="paint12_linear_15_25535" x1="-9124.67" y1="27375.9" x2="-63444.2" y2="7605.2" gradientUnits="userSpaceOnUse">
<stop stop-color="white"/>
<stop offset="1" stop-color="white"/>
</linearGradient>
<linearGradient id="paint13_linear_15_25535" x1="-7337.73" y1="24984.1" x2="-56816.5" y2="8907.44" gradientUnits="userSpaceOnUse">
<stop stop-color="white"/>
<stop offset="1" stop-color="white"/>
</linearGradient>
<linearGradient id="paint14_linear_15_25535" x1="-5730.26" y1="22503.4" x2="-50183.3" y2="9756.68" gradientUnits="userSpaceOnUse">
<stop stop-color="white"/>
<stop offset="1" stop-color="white"/>
</linearGradient>
<linearGradient id="paint15_linear_15_25535" x1="-4306.15" y1="19943.5" x2="-43568.1" y2="10154.4" gradientUnits="userSpaceOnUse">
<stop stop-color="white"/>
<stop offset="1" stop-color="white"/>
</linearGradient>
<linearGradient id="paint16_linear_15_25535" x1="-3068.86" y1="17314.2" x2="-36994.3" y2="10103.1" gradientUnits="userSpaceOnUse">
<stop stop-color="white"/>
<stop offset="1" stop-color="white"/>
</linearGradient>
<linearGradient id="paint17_linear_15_25535" x1="-2021.38" y1="14625.4" x2="-30485.1" y2="9606.5" gradientUnits="userSpaceOnUse">
<stop stop-color="white"/>
<stop offset="1" stop-color="white"/>
</linearGradient>
<linearGradient id="paint18_linear_15_25535" x1="-1166.25" y1="11887.3" x2="-24063.5" y2="8669.26" gradientUnits="userSpaceOnUse">
<stop stop-color="white"/>
<stop offset="1" stop-color="white"/>
</linearGradient>
<linearGradient id="paint19_linear_15_25535" x1="-505.507" y1="9109.86" x2="-17752.2" y2="7297.15" gradientUnits="userSpaceOnUse">
<stop stop-color="white"/>
<stop offset="1" stop-color="white"/>
</linearGradient>
<linearGradient id="paint20_linear_15_25535" x1="-40.7323" y1="6303.47" x2="-11573.7" y2="5497.01" gradientUnits="userSpaceOnUse">
<stop stop-color="white"/>
<stop offset="1" stop-color="white"/>
</linearGradient>
<linearGradient id="paint21_linear_15_25535" x1="226.976" y1="3478.4" x2="-5550.07" y2="3276.66" gradientUnits="userSpaceOnUse">
<stop stop-color="white"/>
<stop offset="1" stop-color="white"/>
</linearGradient>
</defs>
</svg>
