<svg width="36" height="36" viewBox="0 0 36 36" fill="none" xmlns="http://www.w3.org/2000/svg">
<circle cx="18" cy="18" r="18" fill="#8480AF"/>
<path d="M12 24C11.5875 24 11.2344 23.8531 10.9406 23.5594C10.6469 23.2656 10.5 22.9125 10.5 22.5V13.5C10.5 13.0875 10.6469 12.7344 10.9406 12.4406C11.2344 12.1469 11.5875 12 12 12H24C24.4125 12 24.7656 12.1469 25.0594 12.4406C25.3531 12.7344 25.5 13.0875 25.5 13.5V22.5C25.5 22.9125 25.3531 23.2656 25.0594 23.5594C24.7656 23.8531 24.4125 24 24 24H12ZM18 18.6188C18.0625 18.6188 18.1281 18.6094 18.1969 18.5906C18.2656 18.5719 18.3313 18.5438 18.3938 18.5063L23.7 15.1875C23.8 15.125 23.875 15.0469 23.925 14.9531C23.975 14.8594 24 14.7563 24 14.6438C24 14.3938 23.8938 14.2063 23.6813 14.0813C23.4688 13.9563 23.25 13.9625 23.025 14.1L18 17.25L12.975 14.1C12.75 13.9625 12.5312 13.9594 12.3188 14.0906C12.1063 14.2219 12 14.4062 12 14.6438C12 14.7688 12.025 14.8781 12.075 14.9719C12.125 15.0656 12.2 15.1375 12.3 15.1875L17.6063 18.5063C17.6688 18.5438 17.7344 18.5719 17.8031 18.5906C17.8719 18.6094 17.9375 18.6188 18 18.6188Z" fill="#D9D9D9"/>
</svg>
