<svg width="36" height="36" viewBox="0 0 36 36" fill="none" xmlns="http://www.w3.org/2000/svg">
<circle cx="18" cy="18" r="18" fill="#8480AF"/>
<path d="M21 23.25C20.5875 23.25 20.2344 23.1031 19.9406 22.8094C19.6469 22.5156 19.5 22.1625 19.5 21.75V14.25C19.5 13.8375 19.6469 13.4844 19.9406 13.1906C20.2344 12.8969 20.5875 12.75 21 12.75C21.4125 12.75 21.7656 12.8969 22.0594 13.1906C22.3531 13.4844 22.5 13.8375 22.5 14.25V21.75C22.5 22.1625 22.3531 22.5156 22.0594 22.8094C21.7656 23.1031 21.4125 23.25 21 23.25ZM15 23.25C14.5875 23.25 14.2344 23.1031 13.9406 22.8094C13.6469 22.5156 13.5 22.1625 13.5 21.75V14.25C13.5 13.8375 13.6469 13.4844 13.9406 13.1906C14.2344 12.8969 14.5875 12.75 15 12.75C15.4125 12.75 15.7656 12.8969 16.0594 13.1906C16.3531 13.4844 16.5 13.8375 16.5 14.25V21.75C16.5 22.1625 16.3531 22.5156 16.0594 22.8094C15.7656 23.1031 15.4125 23.25 15 23.25Z" fill="#D9D9D9"/>
</svg>
