<svg width="36" height="36" viewBox="0 0 36 36" fill="none" xmlns="http://www.w3.org/2000/svg">
<circle cx="18" cy="18" r="18" fill="#8480AF"/>
<path d="M15 21.8816V14.1191C15 13.9066 15.075 13.7285 15.225 13.5848C15.375 13.441 15.55 13.3691 15.75 13.3691C15.8125 13.3691 15.8781 13.3785 15.9469 13.3973C16.0156 13.416 16.0813 13.4441 16.1438 13.4816L22.2563 17.3629C22.3688 17.4379 22.4531 17.5316 22.5094 17.6441C22.5656 17.7566 22.5938 17.8754 22.5938 18.0004C22.5938 18.1254 22.5656 18.2441 22.5094 18.3566C22.4531 18.4691 22.3688 18.5629 22.2563 18.6379L16.1438 22.5191C16.0813 22.5566 16.0156 22.5848 15.9469 22.6035C15.8781 22.6223 15.8125 22.6316 15.75 22.6316C15.55 22.6316 15.375 22.5598 15.225 22.416C15.075 22.2723 15 22.0941 15 21.8816Z" fill="#D9D9D9"/>
</svg>
