<svg width="11" height="14" viewBox="0 0 11 14" fill="none" xmlns="http://www.w3.org/2000/svg">
<path d="M0.5 12.175V1.82501C0.5 1.54168 0.6 1.30418 0.8 1.11251C1 0.920846 1.23333 0.825012 1.5 0.825012C1.58333 0.825012 1.67083 0.837512 1.7625 0.862512C1.85417 0.887512 1.94167 0.925012 2.025 0.975012L10.175 6.15001C10.325 6.25001 10.4375 6.37501 10.5125 6.52501C10.5875 6.67501 10.625 6.83335 10.625 7.00001C10.625 7.16668 10.5875 7.32501 10.5125 7.47501C10.4375 7.62501 10.325 7.75001 10.175 7.85001L2.025 13.025C1.94167 13.075 1.85417 13.1125 1.7625 13.1375C1.67083 13.1625 1.58333 13.175 1.5 13.175C1.23333 13.175 1 13.0792 0.8 12.8875C0.6 12.6958 0.5 12.4583 0.5 12.175Z" fill="#18162A"/>
</svg>
