<svg width="786" height="1024" viewBox="0 0 786 1024" fill="none" xmlns="http://www.w3.org/2000/svg">
<path opacity="0.05" d="M1545.71 377.76C1578.25 385.12 1588.26 426.574 1562.67 447.975L543.246 1300.63C520.323 1319.8 485.239 1308.23 478.221 1279.18L201.412 133.226C194.395 104.176 220.33 77.8665 249.476 84.4603L1545.71 377.76Z" stroke="url(#paint0_linear_15_25559)" stroke-width="5"/>
<path opacity="0.1" d="M1512.68 366.426C1543.97 372.363 1554.9 411.575 1531.2 432.843L587.111 1280.21C565.882 1299.26 532.028 1289.39 524.366 1261.91L222.124 177.932C214.462 150.453 238.327 124.491 266.351 129.81L1512.68 366.426Z" stroke="url(#paint1_linear_15_25559)" stroke-width="5"/>
<path opacity="0.14" d="M1479.61 357.167C1509.59 361.779 1521.3 398.737 1499.44 419.768L629.024 1257.67C609.452 1276.51 576.9 1268.24 568.694 1242.34L244.992 220.654C236.786 194.753 258.637 169.25 285.488 173.381L1479.61 357.167Z" stroke="url(#paint2_linear_15_25559)" stroke-width="5"/>
<path opacity="0.19" d="M1446.6 349.973C1475.21 353.357 1487.56 388.058 1467.51 408.75L668.892 1233.13C650.934 1251.66 619.755 1244.89 611.105 1220.57L269.902 261.297C261.252 236.979 281.153 212.04 306.782 215.073L1446.6 349.973Z" stroke="url(#paint3_linear_15_25559)" stroke-width="5"/>
<path opacity="0.23" d="M1413.76 344.826C1440.96 347.084 1453.79 379.53 1435.49 399.784L706.627 1206.7C690.238 1224.84 660.494 1219.47 651.501 1196.73L296.736 299.773C287.743 277.035 305.76 252.766 330.126 254.789L1413.76 344.826Z" stroke="url(#paint4_linear_15_25559)" stroke-width="5"/>
<path opacity="0.28" d="M1381.18 341.704C1406.93 342.939 1420.11 373.141 1403.51 392.861L742.149 1178.51C727.278 1196.17 699.027 1192.08 689.788 1170.91L325.373 335.998C316.135 314.833 332.341 291.332 355.405 292.439L1381.18 341.704Z" stroke="url(#paint5_linear_15_25559)" stroke-width="5"/>
<path opacity="0.32" d="M1348.97 340.582C1373.23 340.898 1386.62 368.873 1371.65 387.967L775.382 1148.67C761.974 1165.78 735.266 1162.85 725.882 1143.25L355.687 369.895C346.303 350.29 360.774 327.652 382.505 327.936L1348.97 340.582Z" stroke="url(#paint6_linear_15_25559)" stroke-width="5"/>
<path opacity="0.37" d="M1317.23 341.431C1339.97 340.933 1353.43 366.706 1340.03 385.086L806.256 1117.32C794.253 1133.79 769.134 1131.92 759.7 1113.86L387.551 401.394C378.117 383.332 390.935 361.649 411.305 361.204L1317.23 341.431Z" stroke="url(#paint7_linear_15_25559)" stroke-width="5"/>
<path opacity="0.41" d="M1286.05 344.214C1307.24 343.009 1320.64 366.61 1308.74 384.19L834.706 1084.58C824.047 1100.33 800.556 1099.41 791.167 1082.87L420.833 430.427C411.445 413.887 422.695 393.244 441.681 392.165L1286.05 344.214Z" stroke="url(#paint8_linear_15_25559)" stroke-width="5"/>
<path opacity="0.46" d="M1255.53 348.893C1275.16 347.088 1288.36 368.556 1277.88 385.256L860.676 1050.59C851.294 1065.55 829.465 1065.45 820.216 1050.4L455.401 456.938C446.152 441.893 455.923 422.372 473.507 420.755L1255.53 348.893Z" stroke="url(#paint9_linear_15_25559)" stroke-width="5"/>
<path opacity="0.5" d="M1225.77 355.422C1243.82 353.125 1256.69 372.504 1247.56 388.248L884.114 1015.46C875.941 1029.57 855.799 1030.18 846.783 1016.6L491.117 480.871C482.101 467.29 490.486 448.967 506.655 446.909L1225.77 355.422Z" stroke="url(#paint10_linear_15_25559)" stroke-width="5"/>
<path opacity="0.55" d="M1196.85 363.755C1213.31 361.073 1225.72 378.415 1217.87 393.13L904.974 979.355C897.938 992.536 879.506 993.744 870.811 981.591L527.844 502.183C519.15 490.029 526.245 472.975 540.992 470.573L1196.85 363.755Z" stroke="url(#paint11_linear_15_25559)" stroke-width="5"/>
<path opacity="0.59" d="M1168.87 373.84C1183.74 370.881 1195.56 386.243 1188.89 399.861L923.218 942.395C917.244 954.594 900.536 956.276 892.251 945.51L565.442 520.832C557.157 510.066 563.063 494.346 576.385 491.696L1168.87 373.84Z" stroke="url(#paint12_linear_15_25559)" stroke-width="5"/>
<path opacity="0.64" d="M1141.91 385.62C1155.19 382.491 1166.31 395.937 1160.73 408.396L938.814 904.724C933.823 915.884 918.848 917.921 911.058 908.498L603.771 536.785C595.981 527.362 600.798 513.038 612.698 510.235L1141.91 385.62Z" stroke="url(#paint13_linear_15_25559)" stroke-width="5"/>
<path opacity="0.68" d="M1116.05 399.037C1127.75 395.845 1138.04 407.445 1133.48 418.685L951.735 866.481C947.648 876.55 934.408 878.825 927.196 870.696L642.686 550.018C635.474 541.889 639.309 529.014 649.793 526.155L1116.05 399.037Z" stroke="url(#paint14_linear_15_25559)" stroke-width="5"/>
<path opacity="0.73" d="M1091.37 414.025C1101.51 410.876 1110.87 420.706 1107.22 430.675L961.963 827.808C958.696 836.737 947.188 839.131 940.633 832.242L682.046 560.508C675.491 553.619 678.452 542.244 687.532 539.424L1091.37 414.025Z" stroke="url(#paint15_linear_15_25559)" stroke-width="5"/>
<path opacity="0.77" d="M1067.96 430.517C1076.55 427.517 1084.86 435.657 1082.03 444.306L969.485 788.843C966.954 796.59 957.167 798.985 951.345 793.28L721.706 568.242C715.885 562.537 718.081 552.704 725.775 550.017L1067.96 430.517Z" stroke="url(#paint16_linear_15_25559)" stroke-width="5"/>
<path opacity="0.82" d="M1045.89 448.445C1052.96 445.696 1060.11 452.234 1058.01 459.519L974.294 749.732C972.411 756.257 964.33 758.536 959.316 753.954L761.522 573.216C756.508 568.634 758.051 560.381 764.38 557.919L1045.89 448.445Z" stroke="url(#paint17_linear_15_25559)" stroke-width="5"/>
<defs>
<linearGradient id="paint0_linear_15_25559" x1="16215.9" y1="61015.2" x2="-107401" y2="90875.3" gradientUnits="userSpaceOnUse">
<stop stop-color="white"/>
<stop offset="1" stop-color="white"/>
</linearGradient>
<linearGradient id="paint1_linear_15_25559" x1="17527.6" y1="57723.6" x2="-99404" y2="90327.2" gradientUnits="userSpaceOnUse">
<stop stop-color="white"/>
<stop offset="1" stop-color="white"/>
</linearGradient>
<linearGradient id="paint2_linear_15_25559" x1="18629" y1="54417.5" x2="-91582.9" y2="89336.1" gradientUnits="userSpaceOnUse">
<stop stop-color="white"/>
<stop offset="1" stop-color="white"/>
</linearGradient>
<linearGradient id="paint3_linear_15_25559" x1="19521" y1="51107.4" x2="-83958.8" y2="87913.9" gradientUnits="userSpaceOnUse">
<stop stop-color="white"/>
<stop offset="1" stop-color="white"/>
</linearGradient>
<linearGradient id="paint4_linear_15_25559" x1="20204.6" y1="47804" x2="-76552.3" y2="86073.4" gradientUnits="userSpaceOnUse">
<stop stop-color="white"/>
<stop offset="1" stop-color="white"/>
</linearGradient>
<linearGradient id="paint5_linear_15_25559" x1="20681.5" y1="44517.6" x2="-69382.9" y2="83828" gradientUnits="userSpaceOnUse">
<stop stop-color="white"/>
<stop offset="1" stop-color="white"/>
</linearGradient>
<linearGradient id="paint6_linear_15_25559" x1="20954" y1="41258.6" x2="-62469.7" y2="81192.4" gradientUnits="userSpaceOnUse">
<stop stop-color="white"/>
<stop offset="1" stop-color="white"/>
</linearGradient>
<linearGradient id="paint7_linear_15_25559" x1="21024.5" y1="38037.2" x2="-55831" y2="78181.9" gradientUnits="userSpaceOnUse">
<stop stop-color="white"/>
<stop offset="1" stop-color="white"/>
</linearGradient>
<linearGradient id="paint8_linear_15_25559" x1="20896.2" y1="34863.6" x2="-49484.3" y2="74812.6" gradientUnits="userSpaceOnUse">
<stop stop-color="white"/>
<stop offset="1" stop-color="white"/>
</linearGradient>
<linearGradient id="paint9_linear_15_25559" x1="20572.5" y1="31747.6" x2="-43446.4" y2="71101.2" gradientUnits="userSpaceOnUse">
<stop stop-color="white"/>
<stop offset="1" stop-color="white"/>
</linearGradient>
<linearGradient id="paint10_linear_15_25559" x1="20057.4" y1="28698.9" x2="-37733.1" y2="67065.6" gradientUnits="userSpaceOnUse">
<stop stop-color="white"/>
<stop offset="1" stop-color="white"/>
</linearGradient>
<linearGradient id="paint11_linear_15_25559" x1="19355.4" y1="25727" x2="-32359.6" y2="62723.8" gradientUnits="userSpaceOnUse">
<stop stop-color="white"/>
<stop offset="1" stop-color="white"/>
</linearGradient>
<linearGradient id="paint12_linear_15_25559" x1="18471.3" y1="22841.2" x2="-27339.9" y2="58094.9" gradientUnits="userSpaceOnUse">
<stop stop-color="white"/>
<stop offset="1" stop-color="white"/>
</linearGradient>
<linearGradient id="paint13_linear_15_25559" x1="17410.3" y1="20050.4" x2="-22687.4" y2="53198.4" gradientUnits="userSpaceOnUse">
<stop stop-color="white"/>
<stop offset="1" stop-color="white"/>
</linearGradient>
<linearGradient id="paint14_linear_15_25559" x1="16178.1" y1="17363.6" x2="-18414.3" y2="48054.3" gradientUnits="userSpaceOnUse">
<stop stop-color="white"/>
<stop offset="1" stop-color="white"/>
</linearGradient>
<linearGradient id="paint15_linear_15_25559" x1="14780.7" y1="14789" x2="-14532" y2="42683.4" gradientUnits="userSpaceOnUse">
<stop stop-color="white"/>
<stop offset="1" stop-color="white"/>
</linearGradient>
<linearGradient id="paint16_linear_15_25559" x1="13224.5" y1="12334.9" x2="-11050.9" y2="37106.7" gradientUnits="userSpaceOnUse">
<stop stop-color="white"/>
<stop offset="1" stop-color="white"/>
</linearGradient>
<linearGradient id="paint17_linear_15_25559" x1="11516.4" y1="10009.2" x2="-7980.35" y2="31345.8" gradientUnits="userSpaceOnUse">
<stop stop-color="white"/>
<stop offset="1" stop-color="white"/>
</linearGradient>
</defs>
</svg>
