<svg width="36" height="36" viewBox="0 0 36 36" fill="none" xmlns="http://www.w3.org/2000/svg">
<circle cx="18" cy="18" r="18" fill="#D9D9D9"/>
<path d="M17.1186 25.5C16.7811 25.5 16.4905 25.3875 16.2467 25.1625C16.003 24.9375 15.8561 24.6625 15.8061 24.3375L15.6374 23.1C15.4749 23.0375 15.3217 22.9625 15.178 22.875C15.0342 22.7875 14.8936 22.6938 14.7561 22.5938L13.5936 23.0813C13.2811 23.2188 12.9686 23.2313 12.6561 23.1188C12.3436 23.0063 12.0999 22.8063 11.9249 22.5188L11.0436 20.9813C10.8686 20.6938 10.8186 20.3875 10.8936 20.0625C10.9686 19.7375 11.1374 19.4688 11.3999 19.2563L12.3936 18.5063C12.3811 18.4188 12.3749 18.3344 12.3749 18.2531V17.7469C12.3749 17.6656 12.3811 17.5813 12.3936 17.4938L11.3999 16.7438C11.1374 16.5313 10.9686 16.2625 10.8936 15.9375C10.8186 15.6125 10.8686 15.3063 11.0436 15.0188L11.9249 13.4813C12.0999 13.1938 12.3436 12.9938 12.6561 12.8813C12.9686 12.7688 13.2811 12.7812 13.5936 12.9188L14.7561 13.4062C14.8936 13.3063 15.0374 13.2125 15.1874 13.125C15.3374 13.0375 15.4874 12.9625 15.6374 12.9L15.8061 11.6625C15.8561 11.3375 16.003 11.0625 16.2467 10.8375C16.4905 10.6125 16.7811 10.5 17.1186 10.5H18.8811C19.2186 10.5 19.5092 10.6125 19.753 10.8375C19.9967 11.0625 20.1436 11.3375 20.1936 11.6625L20.3624 12.9C20.5249 12.9625 20.678 13.0375 20.8217 13.125C20.9655 13.2125 21.1061 13.3063 21.2436 13.4062L22.4061 12.9188C22.7186 12.7812 23.0311 12.7688 23.3436 12.8813C23.6561 12.9938 23.8999 13.1938 24.0749 13.4813L24.9561 15.0188C25.1311 15.3063 25.1811 15.6125 25.1061 15.9375C25.0311 16.2625 24.8624 16.5313 24.5999 16.7438L23.6061 17.4938C23.6186 17.5813 23.6249 17.6656 23.6249 17.7469V18.2531C23.6249 18.3344 23.6124 18.4188 23.5874 18.5063L24.5811 19.2563C24.8436 19.4688 25.0124 19.7375 25.0874 20.0625C25.1624 20.3875 25.1124 20.6938 24.9374 20.9813L24.0374 22.5188C23.8624 22.8063 23.6186 23.0063 23.3061 23.1188C22.9936 23.2313 22.6811 23.2188 22.3686 23.0813L21.2436 22.5938C21.1061 22.6938 20.9624 22.7875 20.8124 22.875C20.6624 22.9625 20.5124 23.0375 20.3624 23.1L20.1936 24.3375C20.1436 24.6625 19.9967 24.9375 19.753 25.1625C19.5092 25.3875 19.2186 25.5 18.8811 25.5H17.1186ZM18.0374 20.625C18.7624 20.625 19.3811 20.3688 19.8936 19.8563C20.4061 19.3438 20.6624 18.725 20.6624 18C20.6624 17.275 20.4061 16.6563 19.8936 16.1438C19.3811 15.6313 18.7624 15.375 18.0374 15.375C17.2999 15.375 16.678 15.6313 16.1717 16.1438C15.6655 16.6563 15.4124 17.275 15.4124 18C15.4124 18.725 15.6655 19.3438 16.1717 19.8563C16.678 20.3688 17.2999 20.625 18.0374 20.625Z" fill="#100F1C"/>
</svg>
