<svg width="36" height="36" viewBox="0 0 36 36" fill="none" xmlns="http://www.w3.org/2000/svg">
<circle cx="18" cy="18" r="18" fill="#2F2C55"/>
<path d="M22.5 25.5C21.875 25.5 21.3438 25.2813 20.9062 24.8438C20.4688 24.4063 20.25 23.875 20.25 23.25C20.25 23.1625 20.2563 23.0719 20.2688 22.9781C20.2812 22.8844 20.3 22.8 20.325 22.725L15.0375 19.65C14.825 19.8375 14.5875 19.9844 14.325 20.0906C14.0625 20.1969 13.7875 20.25 13.5 20.25C12.875 20.25 12.3438 20.0312 11.9062 19.5938C11.4688 19.1562 11.25 18.625 11.25 18C11.25 17.375 11.4688 16.8438 11.9062 16.4062C12.3438 15.9688 12.875 15.75 13.5 15.75C13.7875 15.75 14.0625 15.8031 14.325 15.9094C14.5875 16.0156 14.825 16.1625 15.0375 16.35L20.325 13.275C20.3 13.2 20.2812 13.1156 20.2688 13.0219C20.2563 12.9281 20.25 12.8375 20.25 12.75C20.25 12.125 20.4688 11.5938 20.9062 11.1562C21.3438 10.7188 21.875 10.5 22.5 10.5C23.125 10.5 23.6563 10.7188 24.0938 11.1562C24.5313 11.5938 24.75 12.125 24.75 12.75C24.75 13.375 24.5313 13.9063 24.0938 14.3438C23.6563 14.7812 23.125 15 22.5 15C22.2125 15 21.9375 14.9469 21.675 14.8406C21.4125 14.7344 21.175 14.5875 20.9625 14.4L15.675 17.475C15.7 17.55 15.7188 17.6344 15.7313 17.7281C15.7438 17.8219 15.75 17.9125 15.75 18C15.75 18.0875 15.7438 18.1781 15.7313 18.2719C15.7188 18.3656 15.7 18.45 15.675 18.525L20.9625 21.6C21.175 21.4125 21.4125 21.2656 21.675 21.1594C21.9375 21.0531 22.2125 21 22.5 21C23.125 21 23.6563 21.2188 24.0938 21.6562C24.5313 22.0938 24.75 22.625 24.75 23.25C24.75 23.875 24.5313 24.4063 24.0938 24.8438C23.6563 25.2813 23.125 25.5 22.5 25.5Z" fill="#D9D9D9"/>
</svg>
