<svg width="24" height="24" viewBox="0 0 24 24" fill="none" xmlns="http://www.w3.org/2000/svg">
<path d="M17 8.4L6.09999 19.3C5.91665 19.4833 5.68332 19.575 5.39999 19.575C5.11665 19.575 4.88332 19.4833 4.69999 19.3C4.51665 19.1167 4.42499 18.8833 4.42499 18.6C4.42499 18.3167 4.51665 18.0833 4.69999 17.9L15.6 7H9.99999C9.71665 7 9.47915 6.90417 9.28749 6.7125C9.09582 6.52083 8.99999 6.28333 8.99999 6C8.99999 5.71667 9.09582 5.47917 9.28749 5.2875C9.47915 5.09583 9.71665 5 9.99999 5H18C18.2833 5 18.5208 5.09583 18.7125 5.2875C18.9042 5.47917 19 5.71667 19 6V14C19 14.2833 18.9042 14.5208 18.7125 14.7125C18.5208 14.9042 18.2833 15 18 15C17.7167 15 17.4792 14.9042 17.2875 14.7125C17.0958 14.5208 17 14.2833 17 14V8.4Z" fill="#D9D9D9"/>
</svg>
