<svg width="24" height="24" viewBox="0 0 24 24" fill="none" xmlns="http://www.w3.org/2000/svg">
<path d="M20.5755 19.721L13.7235 10.233L18.2755 4.631C18.6245 4.202 18.5585 3.572 18.1295 3.224C17.7025 2.877 17.0715 2.941 16.7235 3.37L12.5105 8.555L9.05654 3.771C8.70654 3.287 8.14554 3 7.54854 3H4.07754C3.41954 3 3.03854 3.746 3.42354 4.279L9.33454 12.463L3.72354 19.369C3.37554 19.798 3.44054 20.428 3.86954 20.776C4.05454 20.927 4.27754 21 4.49954 21C4.79054 21 5.07854 20.874 5.27654 20.631L10.5475 14.143L14.9435 20.229C15.2935 20.713 15.8535 21 16.4505 21H19.9215C20.5795 21 20.9605 20.254 20.5755 19.721Z" fill="#D9D9D9"/>
</svg>
