<svg width="49" height="48" viewBox="0 0 49 48" fill="none" xmlns="http://www.w3.org/2000/svg">
<path d="M24.5 44C21.7333 44 19.1333 43.475 16.7 42.425C14.2667 41.375 12.15 39.95 10.35 38.15C8.55 36.35 7.125 34.2333 6.075 31.8C5.025 29.3667 4.5 26.7667 4.5 24C4.5 21.2333 5.025 18.6333 6.075 16.2C7.125 13.7667 8.55 11.65 10.35 9.85C12.15 8.05 14.2667 6.625 16.7 5.575C19.1333 4.525 21.7333 4 24.5 4C27.2667 4 29.8667 4.525 32.3 5.575C34.7333 6.625 36.85 8.05 38.65 9.85C40.45 11.65 41.875 13.7667 42.925 16.2C43.975 18.6333 44.5 21.2333 44.5 24C44.5 26.7667 43.975 29.3667 42.925 31.8C41.875 34.2333 40.45 36.35 38.65 38.15C36.85 39.95 34.7333 41.375 32.3 42.425C29.8667 43.475 27.2667 44 24.5 44ZM24.5 40C28.9667 40 32.75 38.45 35.85 35.35C38.95 32.25 40.5 28.4667 40.5 24C40.5 19.5333 38.95 15.75 35.85 12.65C32.75 9.55 28.9667 8 24.5 8C20.0333 8 16.25 9.55 13.15 12.65C10.05 15.75 8.5 19.5333 8.5 24C8.5 28.4667 10.05 32.25 13.15 35.35C16.25 38.45 20.0333 40 24.5 40ZM26.45 36C25.15 36 23.9833 35.6 22.95 34.8C21.9167 34 21.1667 32.9667 20.7 31.7C20.6 31.4333 20.4917 31.175 20.375 30.925C20.2583 30.675 20.1 30.45 19.9 30.25L17.4 27.7C16.5333 26.8333 15.8333 25.8333 15.3 24.7C14.7667 23.5667 14.5 22.3667 14.5 21.1C14.5 18.6 15.375 16.4583 17.125 14.675C18.875 12.8917 21 12 23.5 12C25.2333 12 26.825 12.4583 28.275 13.375C29.725 14.2917 30.8333 15.5333 31.6 17.1C31.9333 17.7667 31.9083 18.4167 31.525 19.05C31.1417 19.6833 30.5667 20 29.8 20C29.4 20 29.0417 19.8917 28.725 19.675C28.4083 19.4583 28.1667 19.1667 28 18.8C27.5667 17.9333 26.95 17.25 26.15 16.75C25.35 16.25 24.4667 16 23.5 16C22.1 16 20.9167 16.4833 19.95 17.45C18.9833 18.4167 18.5 19.6 18.5 21C18.5 21.7 18.625 22.3667 18.875 23C19.125 23.6333 19.5 24.2 20 24.7L22.75 27.4C23.2167 27.8667 23.5917 28.375 23.875 28.925C24.1583 29.475 24.4 30.05 24.6 30.65C24.7667 31.05 25.0167 31.375 25.35 31.625C25.6833 31.875 26.0667 32 26.5 32C26.8667 32 27.2083 31.9083 27.525 31.725C27.8417 31.5417 28.0833 31.2833 28.25 30.95C28.4167 30.65 28.65 30.4167 28.95 30.25C29.25 30.0833 29.5833 30 29.95 30C30.7167 30 31.3 30.3167 31.7 30.95C32.1 31.5833 32.1167 32.2333 31.75 32.9C31.2167 33.8667 30.475 34.625 29.525 35.175C28.575 35.725 27.55 36 26.45 36ZM27.5 28C28.3333 28 29.0417 27.7083 29.625 27.125C30.2083 26.5417 30.5 25.8333 30.5 25C30.5 24.1667 30.2083 23.4583 29.625 22.875C29.0417 22.2917 28.3333 22 27.5 22C26.6667 22 25.9583 22.2917 25.375 22.875C24.7917 23.4583 24.5 24.1667 24.5 25C24.5 25.8333 24.7917 26.5417 25.375 27.125C25.9583 27.7083 26.6667 28 27.5 28Z" fill="#D9D9D9"/>
</svg>
