<svg width="48" height="48" viewBox="0 0 48 48" fill="none" xmlns="http://www.w3.org/2000/svg">
<path d="M10 38C9.43333 38 8.95833 37.8083 8.575 37.425C8.19167 37.0417 8 36.5667 8 36C8 35.4333 8.19167 34.9583 8.575 34.575C8.95833 34.1917 9.43333 34 10 34H12V20C12 17.2333 12.8333 14.775 14.5 12.625C16.1667 10.475 18.3333 9.06667 21 8.4V7C21 6.16667 21.2917 5.45833 21.875 4.875C22.4583 4.29167 23.1667 4 24 4C24.8333 4 25.5417 4.29167 26.125 4.875C26.7083 5.45833 27 6.16667 27 7V8.4C29.6667 9.06667 31.8333 10.475 33.5 12.625C35.1667 14.775 36 17.2333 36 20V34H38C38.5667 34 39.0417 34.1917 39.425 34.575C39.8083 34.9583 40 35.4333 40 36C40 36.5667 39.8083 37.0417 39.425 37.425C39.0417 37.8083 38.5667 38 38 38H10ZM24 44C22.9 44 21.9583 43.6083 21.175 42.825C20.3917 42.0417 20 41.1 20 40H28C28 41.1 27.6083 42.0417 26.825 42.825C26.0417 43.6083 25.1 44 24 44Z" fill="#D9D9D9"/>
</svg>
