<svg width="49" height="48" viewBox="0 0 49 48" fill="none" xmlns="http://www.w3.org/2000/svg">
<path d="M24.25 33C26.75 33 28.875 32.125 30.625 30.375C32.375 28.625 33.25 26.5 33.25 24C33.25 21.5 32.375 19.375 30.625 17.625C28.875 15.875 26.75 15 24.25 15C21.75 15 19.625 15.875 17.875 17.625C16.125 19.375 15.25 21.5 15.25 24C15.25 26.5 16.125 28.625 17.875 30.375C19.625 32.125 21.75 33 24.25 33ZM24.25 26C23.6833 26 23.2083 25.8083 22.825 25.425C22.4417 25.0417 22.25 24.5667 22.25 24C22.25 23.4333 22.4417 22.9583 22.825 22.575C23.2083 22.1917 23.6833 22 24.25 22C24.8167 22 25.2917 22.1917 25.675 22.575C26.0583 22.9583 26.25 23.4333 26.25 24C26.25 24.5667 26.0583 25.0417 25.675 25.425C25.2917 25.8083 24.8167 26 24.25 26ZM24.25 44C21.4833 44 18.8833 43.475 16.45 42.425C14.0167 41.375 11.9 39.95 10.1 38.15C8.3 36.35 6.875 34.2333 5.825 31.8C4.775 29.3667 4.25 26.7667 4.25 24C4.25 21.2333 4.775 18.6333 5.825 16.2C6.875 13.7667 8.3 11.65 10.1 9.85C11.9 8.05 14.0167 6.625 16.45 5.575C18.8833 4.525 21.4833 4 24.25 4C27.0167 4 29.6167 4.525 32.05 5.575C34.4833 6.625 36.6 8.05 38.4 9.85C40.2 11.65 41.625 13.7667 42.675 16.2C43.725 18.6333 44.25 21.2333 44.25 24C44.25 26.7667 43.725 29.3667 42.675 31.8C41.625 34.2333 40.2 36.35 38.4 38.15C36.6 39.95 34.4833 41.375 32.05 42.425C29.6167 43.475 27.0167 44 24.25 44Z" fill="#D9D9D9"/>
</svg>
