<svg width="49" height="48" viewBox="0 0 49 48" fill="none" xmlns="http://www.w3.org/2000/svg">
<path d="M18.5 44C17.9333 44 17.4583 43.8083 17.075 43.425C16.6917 43.0417 16.5 42.5667 16.5 42V40.5C13 39.1 10.125 36.9333 7.875 34C5.625 31.0667 4.5 27.7333 4.5 24C4.5 21.2333 5.025 18.6333 6.075 16.2C7.125 13.7667 8.55 11.65 10.35 9.85C12.15 8.05 14.2667 6.625 16.7 5.575C19.1333 4.525 21.7333 4 24.5 4C27.2667 4 29.8667 4.525 32.3 5.575C34.7333 6.625 36.85 8.05 38.65 9.85C40.45 11.65 41.875 13.7667 42.925 16.2C43.975 18.6333 44.5 21.2333 44.5 24C44.5 27.7333 43.375 31.0667 41.125 34C38.875 36.9333 36 39.1 32.5 40.5V42C32.5 42.5667 32.3083 43.0417 31.925 43.425C31.5417 43.8083 31.0667 44 30.5 44H18.5ZM20.5 24H28.5V8.5C27.8333 8.33333 27.1667 8.20833 26.5 8.125C25.8333 8.04167 25.1667 8 24.5 8C23.8333 8 23.1667 8.04167 22.5 8.125C21.8333 8.20833 21.1667 8.33333 20.5 8.5V24ZM8.5 24H16.5V10.15C14 11.5833 12.0417 13.5333 10.625 16C9.20833 18.4667 8.5 21.1333 8.5 24ZM32.5 24H40.5C40.5 21.1333 39.7917 18.4667 38.375 16C36.9583 13.5333 35 11.5833 32.5 10.15V24Z" fill="#D9D9D9"/>
</svg>
