<svg width="49" height="48" viewBox="0 0 49 48" fill="none" xmlns="http://www.w3.org/2000/svg">
<path d="M24.7501 28C23.0835 28 21.6668 27.4167 20.5002 26.25C19.3335 25.0833 18.7502 23.6667 18.7502 22V10C18.7502 8.33333 19.3335 6.91667 20.5002 5.75C21.6668 4.58333 23.0835 4 24.7501 4C26.4168 4 27.8335 4.58333 29.0002 5.75C30.1668 6.91667 30.7502 8.33333 30.7502 10V22C30.7502 23.6667 30.1668 25.0833 29.0002 26.25C27.8335 27.4167 26.4168 28 24.7501 28ZM22.7502 40V35.85C19.6835 35.4167 17.0585 34.1167 14.8752 31.95C12.6918 29.7833 11.3668 27.15 10.9002 24.05C10.8335 23.4833 10.9835 23 11.3502 22.6C11.7168 22.2 12.1835 22 12.7502 22C13.3168 22 13.7918 22.1917 14.1752 22.575C14.5585 22.9583 14.8168 23.4333 14.9502 24C15.4168 26.3333 16.5752 28.25 18.4252 29.75C20.2752 31.25 22.3835 32 24.7501 32C27.1502 32 29.2668 31.2417 31.1001 29.725C32.9335 28.2083 34.0835 26.3 34.5501 24C34.6835 23.4333 34.9418 22.9583 35.3251 22.575C35.7085 22.1917 36.1835 22 36.7502 22C37.3168 22 37.7835 22.2 38.1502 22.6C38.5168 23 38.6668 23.4833 38.6001 24.05C38.1335 27.0833 36.8168 29.7 34.6502 31.9C32.4835 34.1 29.8501 35.4167 26.7501 35.85V40C26.7501 40.5667 26.5585 41.0417 26.1751 41.425C25.7918 41.8083 25.3168 42 24.7501 42C24.1835 42 23.7085 41.8083 23.3252 41.425C22.9418 41.0417 22.7502 40.5667 22.7502 40Z" fill="#D9D9D9"/>
</svg>
