<svg width="49" height="48" viewBox="0 0 49 48" fill="none" xmlns="http://www.w3.org/2000/svg">
<path d="M21.7 44C20 44 18.7083 43.4917 17.825 42.475C16.9417 41.4583 16.5 40.3 16.5 39C16.5 38.1333 16.6917 37.2917 17.075 36.475C17.4583 35.6583 18.05 34.9833 18.85 34.45C19.5833 33.9833 20.175 33.3833 20.625 32.65C21.075 31.9167 21.3833 31.1333 21.55 30.3L20.95 30C20.75 29.9 20.5667 29.7833 20.4 29.65L15.8 31.3C15.2333 31.5 14.6833 31.6667 14.15 31.8C13.6167 31.9333 13.0667 32 12.5 32C10.4 32 8.54167 31.0833 6.925 29.25C5.30833 27.4167 4.5 24.7333 4.5 21.2C4.5 19.5 5.00833 18.2083 6.025 17.325C7.04167 16.4417 8.18333 16 9.45 16C10.3167 16 11.1667 16.1917 12 16.575C12.8333 16.9583 13.5167 17.55 14.05 18.35C14.5167 19.0833 15.1167 19.675 15.85 20.125C16.5833 20.575 17.3667 20.8833 18.2 21.05L18.5 20.45C18.6 20.25 18.7167 20.0667 18.85 19.9L17.2 15.3C17 14.7333 16.8333 14.1833 16.7 13.65C16.5667 13.1167 16.5 12.5833 16.5 12.05C16.5 9.91667 17.4167 8.04167 19.25 6.425C21.0833 4.80833 23.7667 4 27.3 4C29 4 30.2917 4.50833 31.175 5.525C32.0583 6.54167 32.5 7.68333 32.5 8.95C32.5 9.81667 32.3083 10.6667 31.925 11.5C31.5417 12.3333 30.95 13.0167 30.15 13.55C29.4167 14.0167 28.825 14.6167 28.375 15.35C27.925 16.0833 27.6167 16.8667 27.45 17.7L28.05 18C28.25 18.1 28.4333 18.2167 28.6 18.35L33.2 16.65C33.7667 16.45 34.3083 16.2917 34.825 16.175C35.3417 16.0583 35.8833 16 36.45 16C39.15 16 41.1667 17.1167 42.5 19.35C43.8333 21.5833 44.5 24.0667 44.5 26.8C44.5 28.5 43.9667 29.7917 42.9 30.675C41.8333 31.5583 40.65 32 39.35 32C38.5167 32 37.7083 31.8083 36.925 31.425C36.1417 31.0417 35.4833 30.45 34.95 29.65C34.4833 28.9167 33.8833 28.325 33.15 27.875C32.4167 27.425 31.6333 27.1167 30.8 26.95L30.5 27.55C30.4 27.75 30.2833 27.9333 30.15 28.1L31.8 32.7C32 33.2333 32.1667 33.7417 32.3 34.225C32.4333 34.7083 32.5 35.2167 32.5 35.75C32.5333 37.9167 31.6333 39.8333 29.8 41.5C27.9667 43.1667 25.2667 44 21.7 44ZM24.5 27C25.3333 27 26.0417 26.7083 26.625 26.125C27.2083 25.5417 27.5 24.8333 27.5 24C27.5 23.1667 27.2083 22.4583 26.625 21.875C26.0417 21.2917 25.3333 21 24.5 21C23.6667 21 22.9583 21.2917 22.375 21.875C21.7917 22.4583 21.5 23.1667 21.5 24C21.5 24.8333 21.7917 25.5417 22.375 26.125C22.9583 26.7083 23.6667 27 24.5 27Z" fill="#D9D9D9"/>
</svg>
