<svg width="49" height="48" viewBox="0 0 49 48" fill="none" xmlns="http://www.w3.org/2000/svg">
<path d="M10.75 42C9.65 42 8.70833 41.6083 7.925 40.825C7.14167 40.0417 6.75 39.1 6.75 38V18C6.75 16.9 7.14167 15.9583 7.925 15.175C8.70833 14.3917 9.65 14 10.75 14H14.75V10C14.75 8.9 15.1417 7.95833 15.925 7.175C16.7083 6.39167 17.65 6 18.75 6H30.75C31.85 6 32.7917 6.39167 33.575 7.175C34.3583 7.95833 34.75 8.9 34.75 10V22H38.75C39.85 22 40.7917 22.3917 41.575 23.175C42.3583 23.9583 42.75 24.9 42.75 26V38C42.75 39.1 42.3583 40.0417 41.575 40.825C40.7917 41.6083 39.85 42 38.75 42H26.75V34H22.75V42H10.75ZM10.75 38H14.75V34H10.75V38ZM10.75 30H14.75V26H10.75V30ZM10.75 22H14.75V18H10.75V22ZM18.75 30H22.75V26H18.75V30ZM18.75 22H22.75V18H18.75V22ZM18.75 14H22.75V10H18.75V14ZM26.75 30H30.75V26H26.75V30ZM26.75 22H30.75V18H26.75V22ZM26.75 14H30.75V10H26.75V14ZM34.75 38H38.75V34H34.75V38ZM34.75 30H38.75V26H34.75V30Z" fill="#D9D9D9"/>
</svg>
