<svg width="49" height="48" viewBox="0 0 49 48" fill="none" xmlns="http://www.w3.org/2000/svg">
<path d="M22.5 36C18.6 36 15.2917 34.6417 12.575 31.925C9.85833 29.2083 8.5 25.9 8.5 22V10C8.5 8.9 8.89167 7.95833 9.675 7.175C10.4583 6.39167 11.4 6 12.5 6H37.5C39.4333 6 41.0833 6.68333 42.45 8.05C43.8167 9.41667 44.5 11.0667 44.5 13C44.5 14.9333 43.8167 16.5833 42.45 17.95C41.0833 19.3167 39.4333 20 37.5 20H36.5V22C36.5 25.9 35.1417 29.2083 32.425 31.925C29.7083 34.6417 26.4 36 22.5 36ZM12.5 16H32.5V10H12.5V16ZM36.5 16H37.5C38.3333 16 39.0417 15.7083 39.625 15.125C40.2083 14.5417 40.5 13.8333 40.5 13C40.5 12.1667 40.2083 11.4583 39.625 10.875C39.0417 10.2917 38.3333 10 37.5 10H36.5V16ZM10.5 42C9.93333 42 9.45833 41.8083 9.075 41.425C8.69167 41.0417 8.5 40.5667 8.5 40C8.5 39.4333 8.69167 38.9583 9.075 38.575C9.45833 38.1917 9.93333 38 10.5 38H38.5C39.0667 38 39.5417 38.1917 39.925 38.575C40.3083 38.9583 40.5 39.4333 40.5 40C40.5 40.5667 40.3083 41.0417 39.925 41.425C39.5417 41.8083 39.0667 42 38.5 42H10.5Z" fill="#D9D9D9"/>
</svg>
