<svg width="48" height="48" viewBox="0 0 48 48" fill="none" xmlns="http://www.w3.org/2000/svg">
<path d="M22 35.7L16.85 40.75C16.4833 41.1167 16.025 41.3 15.475 41.3C14.925 41.3 14.4667 41.1 14.1 40.7C13.7 40.3333 13.5 39.875 13.5 39.325C13.5 38.775 13.7 38.3 14.1 37.9L22 30V26H18L10.05 33.95C9.68333 34.3167 9.225 34.5 8.675 34.5C8.125 34.5 7.65 34.3 7.25 33.9C6.88333 33.5333 6.7 33.075 6.7 32.525C6.7 31.975 6.88333 31.5167 7.25 31.15L12.3 26H5.95C5.38333 26 4.91667 25.8083 4.55 25.425C4.18333 25.0417 4 24.5667 4 24C4 23.4333 4.19167 22.9583 4.575 22.575C4.95833 22.1917 5.43333 22 6 22H12.3L7.25 16.9C6.88333 16.5333 6.7 16.075 6.7 15.525C6.7 14.975 6.9 14.5 7.3 14.1C7.66667 13.7333 8.125 13.55 8.675 13.55C9.225 13.55 9.7 13.7333 10.1 14.1L18 22H22V18L14.05 10.1C13.6833 9.73333 13.5 9.275 13.5 8.725C13.5 8.175 13.7 7.7 14.1 7.3C14.4667 6.93333 14.925 6.75 15.475 6.75C16.025 6.75 16.4833 6.93333 16.85 7.3L22 12.3V6C22 5.43333 22.1917 4.95833 22.575 4.575C22.9583 4.19167 23.4333 4 24 4C24.5667 4 25.0417 4.19167 25.425 4.575C25.8083 4.95833 26 5.43333 26 6V12.3L31.1 7.3C31.4667 6.93333 31.925 6.75 32.475 6.75C33.025 6.75 33.5 6.93333 33.9 7.3C34.2667 7.7 34.45 8.175 34.45 8.725C34.45 9.275 34.2667 9.73333 33.9 10.1L26 18V22H30L37.9 14.1C38.2667 13.7333 38.725 13.55 39.275 13.55C39.825 13.55 40.3 13.75 40.7 14.15C41.0667 14.5167 41.25 14.975 41.25 15.525C41.25 16.075 41.0667 16.5333 40.7 16.9L35.7 22H42C42.5667 22 43.0417 22.1917 43.425 22.575C43.8083 22.9583 44 23.4333 44 24C44 24.5667 43.8083 25.0417 43.425 25.425C43.0417 25.8083 42.5667 26 42 26H35.7L40.7 31.15C41.0667 31.5167 41.25 31.975 41.25 32.525C41.25 33.075 41.0667 33.5333 40.7 33.9C40.3 34.3 39.825 34.5 39.275 34.5C38.725 34.5 38.2667 34.3 37.9 33.9L30 26H26V30L33.9 37.95C34.2667 38.3167 34.45 38.775 34.45 39.325C34.45 39.875 34.25 40.35 33.85 40.75C33.4833 41.1167 33.025 41.3 32.475 41.3C31.925 41.3 31.4667 41.1167 31.1 40.75L26 35.7V42.05C26 42.6167 25.8083 43.0833 25.425 43.45C25.0417 43.8167 24.5667 44 24 44C23.4333 44 22.9583 43.8083 22.575 43.425C22.1917 43.0417 22 42.5667 22 42V35.7Z" fill="#D9D9D9"/>
</svg>
