<svg width="49" height="48" viewBox="0 0 49 48" fill="none" xmlns="http://www.w3.org/2000/svg">
<path d="M22.65 39.3594L18.53 43.3994C18.2367 43.6928 17.87 43.8394 17.43 43.8394C16.99 43.8394 16.6233 43.6794 16.33 43.3594C16.01 43.0661 15.85 42.6994 15.85 42.2594C15.85 41.8194 16.01 41.4394 16.33 41.1194L22.65 34.7994V31.5994H19.45L13.09 37.9594C12.7967 38.2528 12.43 38.3994 11.99 38.3994C11.55 38.3994 11.17 38.2394 10.85 37.9194C10.5567 37.6261 10.41 37.2594 10.41 36.8194C10.41 36.3794 10.5567 36.0128 10.85 35.7194L14.89 31.5994H9.81C9.35667 31.5994 8.98333 31.4461 8.69 31.1394C8.39667 30.8328 8.25 30.4528 8.25 29.9994C8.25 29.5461 8.40333 29.1661 8.71 28.8594C9.01667 28.5528 9.39667 28.3994 9.85 28.3994H14.89L10.85 24.3194C10.5567 24.0261 10.41 23.6594 10.41 23.2194C10.41 22.7794 10.57 22.3994 10.89 22.0794C11.1833 21.7861 11.55 21.6394 11.99 21.6394C12.43 21.6394 12.81 21.7861 13.13 22.0794L19.45 28.3994H22.65V25.1994L16.29 18.8794C15.9967 18.5861 15.85 18.2194 15.85 17.7794C15.85 17.3394 16.01 16.9594 16.33 16.6394C16.6233 16.3461 16.99 16.1994 17.43 16.1994C17.87 16.1994 18.2367 16.3461 18.53 16.6394L22.65 20.6394V15.5994C22.65 15.1461 22.8033 14.7661 23.11 14.4594C23.4167 14.1528 23.7967 13.9994 24.25 13.9994C24.7033 13.9994 25.0833 14.1528 25.39 14.4594C25.6967 14.7661 25.85 15.1461 25.85 15.5994V20.6394L29.93 16.6394C30.2233 16.3461 30.59 16.1994 31.03 16.1994C31.47 16.1994 31.85 16.3461 32.17 16.6394C32.4633 16.9594 32.61 17.3394 32.61 17.7794C32.61 18.2194 32.4633 18.5861 32.17 18.8794L25.85 25.1994V28.3994H29.05L35.37 22.0794C35.6633 21.7861 36.03 21.6394 36.47 21.6394C36.91 21.6394 37.29 21.7994 37.61 22.1194C37.9033 22.4128 38.05 22.7794 38.05 23.2194C38.05 23.6594 37.9033 24.0261 37.61 24.3194L33.61 28.3994H38.65C39.1033 28.3994 39.4833 28.5528 39.79 28.8594C40.0967 29.1661 40.25 29.5461 40.25 29.9994C40.25 30.4528 40.0967 30.8328 39.79 31.1394C39.4833 31.4461 39.1033 31.5994 38.65 31.5994H33.61L37.61 35.7194C37.9033 36.0128 38.05 36.3794 38.05 36.8194C38.05 37.2594 37.9033 37.6261 37.61 37.9194C37.29 38.2394 36.91 38.3994 36.47 38.3994C36.03 38.3994 35.6633 38.2394 35.37 37.9194L29.05 31.5994H25.85V34.7994L32.17 41.1594C32.4633 41.4528 32.61 41.8194 32.61 42.2594C32.61 42.6994 32.45 43.0794 32.13 43.3994C31.8367 43.6928 31.47 43.8394 31.03 43.8394C30.59 43.8394 30.2233 43.6928 29.93 43.3994L25.85 39.3594V44.4394C25.85 44.8928 25.6967 45.2661 25.39 45.5594C25.0833 45.8528 24.7033 45.9994 24.25 45.9994C23.7967 45.9994 23.4167 45.8461 23.11 45.5394C22.8033 45.2328 22.65 44.8528 22.65 44.3994V39.3594Z" fill="#D9D9D9"/>
<path d="M21.7929 7.1423V2.57087C21.7929 1.92325 22.0119 1.38039 22.45 0.942299C22.8881 0.504204 23.431 0.285156 24.0786 0.285156C24.7262 0.285156 25.269 0.504204 25.7071 0.942299C26.1452 1.38039 26.3643 1.92325 26.3643 2.57087V7.1423C26.3643 7.78992 26.1452 8.33278 25.7071 8.77087C25.269 9.20897 24.7262 9.42801 24.0786 9.42801C23.431 9.42801 22.8881 9.20897 22.45 8.77087C22.0119 8.33278 21.7929 7.78992 21.7929 7.1423ZM30.5357 8.91373L33.7929 5.65658C34.2119 5.23754 34.7357 5.02801 35.3643 5.02801C35.9929 5.02801 36.5357 5.23754 36.9929 5.65658C37.45 6.11373 37.6786 6.64706 37.6786 7.25658C37.6786 7.86611 37.45 8.39944 36.9929 8.85658L33.7357 12.1137C33.3167 12.5328 32.7929 12.7518 32.1643 12.7709C31.5357 12.7899 30.9929 12.5709 30.5357 12.1137C30.1167 11.6947 29.9071 11.1613 29.9071 10.5137C29.9071 9.86611 30.1167 9.33278 30.5357 8.91373ZM14.4214 12.1137L11.1643 8.85658C10.7452 8.43754 10.5357 7.91373 10.5357 7.28516C10.5357 6.65658 10.7452 6.11373 11.1643 5.65658C11.6214 5.19944 12.1548 4.97087 12.7643 4.97087C13.3738 4.97087 13.9071 5.19944 14.3643 5.65658L17.6214 8.91373C18.0405 9.33278 18.2595 9.85658 18.2786 10.4852C18.2976 11.1137 18.0786 11.6566 17.6214 12.1137C17.2024 12.5328 16.669 12.7423 16.0214 12.7423C15.3738 12.7423 14.8405 12.5328 14.4214 12.1137Z" fill="#D9D9D9"/>
</svg>
