<svg width="49" height="48" viewBox="0 0 49 48" fill="none" xmlns="http://www.w3.org/2000/svg">
<path d="M8.5 27.999C8.5 24.2324 9.61667 20.6157 11.85 17.149C14.0833 13.6824 17.15 10.649 21.05 8.04903C21.7833 7.54903 22.5417 7.52403 23.325 7.97403C24.1083 8.42403 24.5 9.09903 24.5 9.99903V12.599C24.5 13.7324 24.8917 14.6824 25.675 15.449C26.4583 16.2157 27.4167 16.599 28.55 16.599C29.1167 16.599 29.6583 16.474 30.175 16.224C30.6917 15.974 31.15 15.6157 31.55 15.149C31.8167 14.8157 32.1583 14.6074 32.575 14.524C32.9917 14.4407 33.3833 14.5324 33.75 14.799C35.85 16.299 37.5 18.2157 38.7 20.549C39.9 22.8824 40.5 25.3657 40.5 27.999C40.5 30.9324 39.7833 33.6074 38.35 36.024C36.9167 38.4407 35.0333 40.349 32.7 41.749C33.2667 40.949 33.7083 40.074 34.025 39.124C34.3417 38.174 34.5 37.1657 34.5 36.099C34.5 34.7657 34.25 33.5074 33.75 32.324C33.25 31.1407 32.5333 30.0824 31.6 29.149L24.5 22.199L17.45 29.149C16.4833 30.1157 15.75 31.1824 15.25 32.349C14.75 33.5157 14.5 34.7657 14.5 36.099C14.5 37.1657 14.6583 38.174 14.975 39.124C15.2917 40.074 15.7333 40.949 16.3 41.749C13.9667 40.349 12.0833 38.4407 10.65 36.024C9.21667 33.6074 8.5 30.9324 8.5 27.999ZM24.5 27.799L28.75 31.949C29.3167 32.5157 29.75 33.149 30.05 33.849C30.35 34.549 30.5 35.299 30.5 36.099C30.5 37.7324 29.9167 39.124 28.75 40.274C27.5833 41.424 26.1667 41.999 24.5 41.999C22.8333 41.999 21.4167 41.424 20.25 40.274C19.0833 39.124 18.5 37.7324 18.5 36.099C18.5 35.3324 18.65 34.5907 18.95 33.874C19.25 33.1574 19.6833 32.5157 20.25 31.949L24.5 27.799Z" fill="#D9D9D9"/>
</svg>
