<svg width="48" height="48" viewBox="0 0 49 48" fill="none" xmlns="http://www.w3.org/2000/svg">
<path d="M24.5 44C19.9333 44 16.125 42.4333 13.075 39.3C10.025 36.1667 8.5 32.2667 8.5 27.6C8.5 25.5333 8.96667 23.4667 9.9 21.4C10.8333 19.3333 12 17.35 13.4 15.45C14.8 13.55 16.3167 11.7667 17.95 10.1C19.5833 8.43333 21.1 6.98333 22.5 5.75C22.7667 5.48333 23.075 5.29167 23.425 5.175C23.775 5.05833 24.1333 5 24.5 5C24.8667 5 25.225 5.05833 25.575 5.175C25.925 5.29167 26.2333 5.48333 26.5 5.75C27.9 6.98333 29.4167 8.43333 31.05 10.1C32.6833 11.7667 34.2 13.55 35.6 15.45C37 17.35 38.1667 19.3333 39.1 21.4C40.0333 23.4667 40.5 25.5333 40.5 27.6C40.5 32.2667 38.975 36.1667 35.925 39.3C32.875 42.4333 29.0667 44 24.5 44ZM25.05 38C25.45 37.9667 25.7917 37.8083 26.075 37.525C26.3583 37.2417 26.5 36.9 26.5 36.5C26.5 36.0333 26.35 35.6583 26.05 35.375C25.75 35.0917 25.3667 34.9667 24.9 35C23.5333 35.1 22.0833 34.725 20.55 33.875C19.0167 33.025 18.05 31.4833 17.65 29.25C17.5833 28.8833 17.4083 28.5833 17.125 28.35C16.8417 28.1167 16.5167 28 16.15 28C15.6833 28 15.3 28.175 15 28.525C14.7 28.875 14.6 29.2833 14.7 29.75C15.2667 32.7833 16.6 34.95 18.7 36.25C20.8 37.55 22.9167 38.1333 25.05 38Z" fill="#D9D9D9"/>
</svg>
