<svg width="49" height="48" viewBox="0 0 49 48" fill="none" xmlns="http://www.w3.org/2000/svg">
<path d="M26.75 44.7L28.55 42.65L26.85 41.8C26.2833 41.5 25.9333 41.0333 25.8 40.4C25.6667 39.7667 25.8167 39.2 26.25 38.7L29.75 34.7C29.9167 34.4667 30.1417 34.2917 30.425 34.175C30.7083 34.0583 30.9833 34 31.25 34C32.1167 34 32.725 34.3833 33.075 35.15C33.425 35.9167 33.3167 36.6333 32.75 37.3L30.95 39.35L32.65 40.2C33.2167 40.5 33.5667 40.9667 33.7 41.6C33.8333 42.2333 33.6833 42.8 33.25 43.3L29.75 47.3C29.5833 47.5333 29.3583 47.7083 29.075 47.825C28.7917 47.9417 28.5167 48 28.25 48C27.3833 48 26.775 47.6167 26.425 46.85C26.075 46.0833 26.1833 45.3667 26.75 44.7ZM14.75 44.7L16.55 42.65L14.85 41.8C14.2833 41.5 13.9333 41.0333 13.8 40.4C13.6667 39.7667 13.8167 39.2 14.25 38.7L17.75 34.7C17.9167 34.4667 18.1417 34.2917 18.425 34.175C18.7083 34.0583 18.9833 34 19.25 34C20.1167 34 20.725 34.3833 21.075 35.15C21.425 35.9167 21.3167 36.6333 20.75 37.3L18.95 39.35L20.65 40.2C21.2167 40.5 21.5667 40.9667 21.7 41.6C21.8333 42.2333 21.6833 42.8 21.25 43.3L17.75 47.3C17.5833 47.5333 17.3583 47.7083 17.075 47.825C16.7917 47.9417 16.5167 48 16.25 48C15.3833 48 14.775 47.6167 14.425 46.85C14.075 46.0833 14.1833 45.3667 14.75 44.7ZM15.75 32C12.7167 32 10.125 30.925 7.975 28.775C5.825 26.625 4.75 24.0333 4.75 21C4.75 18.2333 5.66667 15.8167 7.5 13.75C9.33333 11.6833 11.6 10.4667 14.3 10.1C15.3667 8.2 16.825 6.70833 18.675 5.625C20.525 4.54167 22.55 4 24.75 4C27.75 4 30.3583 4.95833 32.575 6.875C34.7917 8.79167 36.1333 11.1833 36.6 14.05C38.9 14.25 40.8333 15.2 42.4 16.9C43.9667 18.6 44.75 20.6333 44.75 23C44.75 25.5 43.875 27.625 42.125 29.375C40.375 31.125 38.25 32 35.75 32H15.75Z" fill="#D9D9D9"/>
</svg>
