<svg width="126" height="64" viewBox="0 0 126 64" fill="none" xmlns="http://www.w3.org/2000/svg">
<path d="M64.75 52.7L66.55 50.65L64.85 49.8C64.2833 49.5 63.9333 49.0333 63.8 48.4C63.6667 47.7667 63.8167 47.2 64.25 46.7L67.75 42.7C67.9167 42.4667 68.1417 42.2917 68.425 42.175C68.7083 42.0583 68.9833 42 69.25 42C70.1167 42 70.725 42.3833 71.075 43.15C71.425 43.9167 71.3167 44.6333 70.75 45.3L68.95 47.35L70.65 48.2C71.2167 48.5 71.5667 48.9667 71.7 49.6C71.8333 50.2333 71.6833 50.8 71.25 51.3L67.75 55.3C67.5833 55.5333 67.3583 55.7083 67.075 55.825C66.7917 55.9417 66.5167 56 66.25 56C65.3833 56 64.775 55.6167 64.425 54.85C64.075 54.0833 64.1833 53.3667 64.75 52.7ZM52.75 52.7L54.55 50.65L52.85 49.8C52.2833 49.5 51.9333 49.0333 51.8 48.4C51.6667 47.7667 51.8167 47.2 52.25 46.7L55.75 42.7C55.9167 42.4667 56.1417 42.2917 56.425 42.175C56.7083 42.0583 56.9833 42 57.25 42C58.1167 42 58.725 42.3833 59.075 43.15C59.425 43.9167 59.3167 44.6333 58.75 45.3L56.95 47.35L58.65 48.2C59.2167 48.5 59.5667 48.9667 59.7 49.6C59.8333 50.2333 59.6833 50.8 59.25 51.3L55.75 55.3C55.5833 55.5333 55.3583 55.7083 55.075 55.825C54.7917 55.9417 54.5167 56 54.25 56C53.3833 56 52.775 55.6167 52.425 54.85C52.075 54.0833 52.1833 53.3667 52.75 52.7ZM53.75 40C50.7167 40 48.125 38.925 45.975 36.775C43.825 34.625 42.75 32.0333 42.75 29C42.75 26.2333 43.6667 23.8167 45.5 21.75C47.3333 19.6833 49.6 18.4667 52.3 18.1C53.3667 16.2 54.825 14.7083 56.675 13.625C58.525 12.5417 60.55 12 62.75 12C65.75 12 68.3583 12.9583 70.575 14.875C72.7917 16.7917 74.1333 19.1833 74.6 22.05C76.9 22.25 78.8333 23.2 80.4 24.9C81.9667 26.6 82.75 28.6333 82.75 31C82.75 33.5 81.875 35.625 80.125 37.375C78.375 39.125 76.25 40 73.75 40H53.75Z" fill="#D9D9D9"/>
</svg>
