<svg width="126" height="64" viewBox="0 0 126 64" fill="none" xmlns="http://www.w3.org/2000/svg">
<path d="M63.05 48.15C62.05 48.8167 60.975 49.2917 59.825 49.575C58.675 49.8583 57.5167 50 56.35 50C55.1833 50 54.0333 49.8417 52.9 49.525C51.7667 49.2083 50.6833 48.75 49.65 48.15C48.9167 48.5833 48.1583 48.9417 47.375 49.225C46.5917 49.5083 45.7833 49.7167 44.95 49.85C44.4167 49.9167 43.9583 49.7667 43.575 49.4C43.1917 49.0333 43 48.5667 43 48C43 47.4333 43.1833 46.95 43.55 46.55C43.9167 46.15 44.3833 45.8833 44.95 45.75C45.5833 45.5833 46.175 45.3667 46.725 45.1C47.275 44.8333 47.8167 44.5167 48.35 44.15C48.7167 43.8833 49.1417 43.75 49.625 43.75C50.1083 43.75 50.5333 43.8833 50.9 44.15C51.7 44.7167 52.5667 45.1583 53.5 45.475C54.4333 45.7917 55.3833 45.95 56.35 45.95C57.3167 45.95 58.275 45.8 59.225 45.5C60.175 45.2 61.05 44.7667 61.85 44.2C62.2167 43.9333 62.6333 43.8083 63.1 43.825C63.5667 43.8417 63.9833 43.9833 64.35 44.25C65.15 44.8167 66.0083 45.2417 66.925 45.525C67.8417 45.8083 68.7833 45.95 69.75 45.95C70.75 45.95 71.7167 45.775 72.65 45.425C73.5833 45.075 74.4667 44.6167 75.3 44.05C75.6667 43.8167 76.05 43.6917 76.45 43.675C76.85 43.6583 77.2333 43.7833 77.6 44.05C78.1333 44.4167 78.6667 44.75 79.2 45.05C79.7333 45.35 80.3167 45.5833 80.95 45.75C81.5167 45.9167 82 46.1917 82.4 46.575C82.8 46.9583 83 47.4333 83 48C83 48.5667 82.8 49.0417 82.4 49.425C82 49.8083 81.5167 49.95 80.95 49.85C80.15 49.7167 79.375 49.5 78.625 49.2C77.875 48.9 77.15 48.55 76.45 48.15C75.45 48.75 74.375 49.2083 73.225 49.525C72.075 49.8417 70.9167 50 69.75 50C68.5833 50 67.425 49.8417 66.275 49.525C65.125 49.2083 64.05 48.75 63.05 48.15ZM43 41V37C43 33.7667 43.625 30.75 44.875 27.95C46.125 25.15 47.8333 22.7167 50 20.65C52.1667 18.5833 54.7083 16.9583 57.625 15.775C60.5417 14.5917 63.6667 14 67 14C67.5667 14 68.1583 14.0083 68.775 14.025C69.3917 14.0417 69.9833 14.1 70.55 14.2C71.2167 14.3 71.7083 14.65 72.025 15.25C72.3417 15.85 72.35 16.45 72.05 17.05C71.7167 17.75 71.4583 18.45 71.275 19.15C71.0917 19.85 71 20.5833 71 21.35C71 23.1833 71.65 24.75 72.95 26.05C74.25 27.35 75.8167 28 77.65 28H81C81.5667 28 82.0417 28.1917 82.425 28.575C82.8083 28.9583 83 29.4333 83 30C83 30.5667 82.8083 31.0417 82.425 31.425C82.0417 31.8083 81.5667 32 81 32H77.65C74.6833 32 72.1667 30.9667 70.1 28.9C68.0333 26.8333 67 24.3167 67 21.35C67 20.8833 67.0333 20.3917 67.1 19.875C67.1667 19.3583 67.2667 18.85 67.4 18.35C64.9333 18.95 62.9167 20.225 61.35 22.175C59.7833 24.125 59 26.4 59 29C59 30.2 59.1917 31.3417 59.575 32.425C59.9583 33.5083 60.5 34.5333 61.2 35.5L61.85 35.05C62.2167 34.7833 62.6 34.65 63 34.65C63.4 34.65 63.7833 34.7833 64.15 35.05C64.9167 35.5833 65.8083 36.0333 66.825 36.4C67.8417 36.7667 68.8167 36.95 69.75 36.95C70.6833 36.95 71.6583 36.7667 72.675 36.4C73.6917 36.0333 74.5833 35.5833 75.35 35.05C75.7167 34.8167 76.0917 34.6917 76.475 34.675C76.8583 34.6583 77.2333 34.7667 77.6 35L78.7 35.75C79.0667 35.95 79.4417 36.1417 79.825 36.325C80.2083 36.5083 80.6 36.65 81 36.75C81.5667 36.9167 82.0417 37.1917 82.425 37.575C82.8083 37.9583 83 38.4333 83 39C83 39.5667 82.8 40.0417 82.4 40.425C82 40.8083 81.5167 40.95 80.95 40.85C80.1833 40.7167 79.425 40.5083 78.675 40.225C77.925 39.9417 77.1833 39.5833 76.45 39.15C75.3833 39.8167 74.3 40.2917 73.2 40.575C72.1 40.8583 70.95 41 69.75 41C68.55 41 67.35 40.8333 66.15 40.5C64.95 40.1667 63.9167 39.7167 63.05 39.15C62.0167 39.7833 60.9333 40.2417 59.8 40.525C58.6667 40.8083 57.5167 40.9667 56.35 41C55.1833 41.0333 54.0333 40.8833 52.9 40.55C51.7667 40.2167 50.6833 39.75 49.65 39.15C48.6167 39.75 47.5417 40.2083 46.425 40.525C45.3083 40.8417 44.1667 41 43 41Z" fill="#D9D9D9"/>
</svg>
