<svg width="48" height="48" viewBox="0 0 48 48" fill="none" xmlns="http://www.w3.org/2000/svg">
<path d="M24.05 40.15C23.05 40.8167 21.975 41.2917 20.825 41.575C19.675 41.8583 18.5167 42 17.35 42C16.1833 42 15.0333 41.8417 13.9 41.525C12.7667 41.2083 11.6833 40.75 10.65 40.15C9.91667 40.5833 9.15833 40.9417 8.375 41.225C7.59167 41.5083 6.78333 41.7167 5.95 41.85C5.41667 41.9167 4.95833 41.7667 4.575 41.4C4.19167 41.0333 4 40.5667 4 40C4 39.4333 4.18333 38.95 4.55 38.55C4.91667 38.15 5.38333 37.8833 5.95 37.75C6.58333 37.5833 7.175 37.3667 7.725 37.1C8.275 36.8333 8.81667 36.5167 9.35 36.15C9.71667 35.8833 10.1417 35.75 10.625 35.75C11.1083 35.75 11.5333 35.8833 11.9 36.15C12.7 36.7167 13.5667 37.1583 14.5 37.475C15.4333 37.7917 16.3833 37.95 17.35 37.95C18.3167 37.95 19.275 37.8 20.225 37.5C21.175 37.2 22.05 36.7667 22.85 36.2C23.2167 35.9333 23.6333 35.8083 24.1 35.825C24.5667 35.8417 24.9833 35.9833 25.35 36.25C26.15 36.8167 27.0083 37.2417 27.925 37.525C28.8417 37.8083 29.7833 37.95 30.75 37.95C31.75 37.95 32.7167 37.775 33.65 37.425C34.5833 37.075 35.4667 36.6167 36.3 36.05C36.6667 35.8167 37.05 35.6917 37.45 35.675C37.85 35.6583 38.2333 35.7833 38.6 36.05C39.1333 36.4167 39.6667 36.75 40.2 37.05C40.7333 37.35 41.3167 37.5833 41.95 37.75C42.5167 37.9167 43 38.1917 43.4 38.575C43.8 38.9583 44 39.4333 44 40C44 40.5667 43.8 41.0417 43.4 41.425C43 41.8083 42.5167 41.95 41.95 41.85C41.15 41.7167 40.375 41.5 39.625 41.2C38.875 40.9 38.15 40.55 37.45 40.15C36.45 40.75 35.375 41.2083 34.225 41.525C33.075 41.8417 31.9167 42 30.75 42C29.5833 42 28.425 41.8417 27.275 41.525C26.125 41.2083 25.05 40.75 24.05 40.15ZM4 33V29C4 25.7667 4.625 22.75 5.875 19.95C7.125 17.15 8.83333 14.7167 11 12.65C13.1667 10.5833 15.7083 8.95833 18.625 7.775C21.5417 6.59167 24.6667 6 28 6C28.5667 6 29.1583 6.00833 29.775 6.025C30.3917 6.04167 30.9833 6.1 31.55 6.2C32.2167 6.3 32.7083 6.65 33.025 7.25C33.3417 7.85 33.35 8.45 33.05 9.05C32.7167 9.75 32.4583 10.45 32.275 11.15C32.0917 11.85 32 12.5833 32 13.35C32 15.1833 32.65 16.75 33.95 18.05C35.25 19.35 36.8167 20 38.65 20H42C42.5667 20 43.0417 20.1917 43.425 20.575C43.8083 20.9583 44 21.4333 44 22C44 22.5667 43.8083 23.0417 43.425 23.425C43.0417 23.8083 42.5667 24 42 24H38.65C35.6833 24 33.1667 22.9667 31.1 20.9C29.0333 18.8333 28 16.3167 28 13.35C28 12.8833 28.0333 12.3917 28.1 11.875C28.1667 11.3583 28.2667 10.85 28.4 10.35C25.9333 10.95 23.9167 12.225 22.35 14.175C20.7833 16.125 20 18.4 20 21C20 22.2 20.1917 23.3417 20.575 24.425C20.9583 25.5083 21.5 26.5333 22.2 27.5L22.85 27.05C23.2167 26.7833 23.6 26.65 24 26.65C24.4 26.65 24.7833 26.7833 25.15 27.05C25.9167 27.5833 26.8083 28.0333 27.825 28.4C28.8417 28.7667 29.8167 28.95 30.75 28.95C31.6833 28.95 32.6583 28.7667 33.675 28.4C34.6917 28.0333 35.5833 27.5833 36.35 27.05C36.7167 26.8167 37.0917 26.6917 37.475 26.675C37.8583 26.6583 38.2333 26.7667 38.6 27L39.7 27.75C40.0667 27.95 40.4417 28.1417 40.825 28.325C41.2083 28.5083 41.6 28.65 42 28.75C42.5667 28.9167 43.0417 29.1917 43.425 29.575C43.8083 29.9583 44 30.4333 44 31C44 31.5667 43.8 32.0417 43.4 32.425C43 32.8083 42.5167 32.95 41.95 32.85C41.1833 32.7167 40.425 32.5083 39.675 32.225C38.925 31.9417 38.1833 31.5833 37.45 31.15C36.3833 31.8167 35.3 32.2917 34.2 32.575C33.1 32.8583 31.95 33 30.75 33C29.55 33 28.35 32.8333 27.15 32.5C25.95 32.1667 24.9167 31.7167 24.05 31.15C23.0167 31.7833 21.9333 32.2417 20.8 32.525C19.6667 32.8083 18.5167 32.9667 17.35 33C16.1833 33.0333 15.0333 32.8833 13.9 32.55C12.7667 32.2167 11.6833 31.75 10.65 31.15C9.61667 31.75 8.54167 32.2083 7.425 32.525C6.30833 32.8417 5.16667 33 4 33Z" fill="#D9D9D9"/>
</svg>
