<svg width="49" height="48" viewBox="0 0 49 48" fill="none" xmlns="http://www.w3.org/2000/svg">
<path d="M23.25 40C22.1833 40 21.1917 39.7333 20.275 39.2C19.3583 38.6667 18.6167 37.9333 18.05 37C17.6833 36.3333 17.675 35.6667 18.025 35C18.375 34.3333 18.9167 34 19.65 34C20.0833 34 20.4667 34.1333 20.8 34.4C21.1333 34.6667 21.4333 34.9667 21.7 35.3C21.8667 35.5333 22.0917 35.7083 22.375 35.825C22.6583 35.9417 22.95 36 23.25 36C23.8167 36 24.2917 35.8083 24.675 35.425C25.0583 35.0417 25.25 34.5667 25.25 34C25.25 33.4333 25.0583 32.9583 24.675 32.575C24.2917 32.1917 23.8167 32 23.25 32H6.25C5.68333 32 5.20833 31.8083 4.825 31.425C4.44167 31.0417 4.25 30.5667 4.25 30C4.25 29.4333 4.44167 28.9583 4.825 28.575C5.20833 28.1917 5.68333 28 6.25 28H23.25C24.9167 28 26.3333 28.5833 27.5 29.75C28.6667 30.9167 29.25 32.3333 29.25 34C29.25 35.6667 28.6667 37.0833 27.5 38.25C26.3333 39.4167 24.9167 40 23.25 40ZM6.25 20C5.68333 20 5.20833 19.8083 4.825 19.425C4.44167 19.0417 4.25 18.5667 4.25 18C4.25 17.4333 4.44167 16.9583 4.825 16.575C5.20833 16.1917 5.68333 16 6.25 16H31.25C32.0833 16 32.7917 15.7083 33.375 15.125C33.9583 14.5417 34.25 13.8333 34.25 13C34.25 12.1667 33.9583 11.4583 33.375 10.875C32.7917 10.2917 32.0833 10 31.25 10C30.7167 10 30.2167 10.125 29.75 10.375C29.2833 10.625 28.9167 10.9833 28.65 11.45C28.4167 11.85 28.1333 12.2083 27.8 12.525C27.4667 12.8417 27.0667 13 26.6 13C25.9333 13 25.3917 12.75 24.975 12.25C24.5583 11.75 24.45 11.2167 24.65 10.65C25.1167 9.25 25.9583 8.125 27.175 7.275C28.3917 6.425 29.75 6 31.25 6C33.1833 6 34.8333 6.68333 36.2 8.05C37.5667 9.41667 38.25 11.0667 38.25 13C38.25 14.9333 37.5667 16.5833 36.2 17.95C34.8333 19.3167 33.1833 20 31.25 20H6.25ZM40.15 35.4C39.4833 35.7 38.8333 35.6583 38.2 35.275C37.5667 34.8917 37.25 34.3333 37.25 33.6C37.25 33.1333 37.4083 32.7417 37.725 32.425C38.0417 32.1083 38.4 31.8333 38.8 31.6C39.2667 31.3333 39.625 30.9667 39.875 30.5C40.125 30.0333 40.25 29.5333 40.25 29C40.25 28.1667 39.9583 27.4583 39.375 26.875C38.7917 26.2917 38.0833 26 37.25 26H6.25C5.68333 26 5.20833 25.8083 4.825 25.425C4.44167 25.0417 4.25 24.5667 4.25 24C4.25 23.4333 4.44167 22.9583 4.825 22.575C5.20833 22.1917 5.68333 22 6.25 22H37.25C39.1833 22 40.8333 22.6833 42.2 24.05C43.5667 25.4167 44.25 27.0667 44.25 29C44.25 30.4 43.8833 31.675 43.15 32.825C42.4167 33.975 41.4167 34.8333 40.15 35.4Z" fill="#D9D9D9"/>
</svg>
