<svg width="126" height="64" viewBox="0 0 126 64" fill="none" xmlns="http://www.w3.org/2000/svg">
<path d="M62.25 48C61.1833 48 60.1917 47.7333 59.275 47.2C58.3583 46.6667 57.6167 45.9333 57.05 45C56.6833 44.3333 56.675 43.6667 57.025 43C57.375 42.3333 57.9167 42 58.65 42C59.0833 42 59.4667 42.1333 59.8 42.4C60.1333 42.6667 60.4333 42.9667 60.7 43.3C60.8667 43.5333 61.0917 43.7083 61.375 43.825C61.6583 43.9417 61.95 44 62.25 44C62.8167 44 63.2917 43.8083 63.675 43.425C64.0583 43.0417 64.25 42.5667 64.25 42C64.25 41.4333 64.0583 40.9583 63.675 40.575C63.2917 40.1917 62.8167 40 62.25 40H45.25C44.6833 40 44.2083 39.8083 43.825 39.425C43.4417 39.0417 43.25 38.5667 43.25 38C43.25 37.4333 43.4417 36.9583 43.825 36.575C44.2083 36.1917 44.6833 36 45.25 36H62.25C63.9167 36 65.3333 36.5833 66.5 37.75C67.6667 38.9167 68.25 40.3333 68.25 42C68.25 43.6667 67.6667 45.0833 66.5 46.25C65.3333 47.4167 63.9167 48 62.25 48ZM45.25 28C44.6833 28 44.2083 27.8083 43.825 27.425C43.4417 27.0417 43.25 26.5667 43.25 26C43.25 25.4333 43.4417 24.9583 43.825 24.575C44.2083 24.1917 44.6833 24 45.25 24H70.25C71.0833 24 71.7917 23.7083 72.375 23.125C72.9583 22.5417 73.25 21.8333 73.25 21C73.25 20.1667 72.9583 19.4583 72.375 18.875C71.7917 18.2917 71.0833 18 70.25 18C69.7167 18 69.2167 18.125 68.75 18.375C68.2833 18.625 67.9167 18.9833 67.65 19.45C67.4167 19.85 67.1333 20.2083 66.8 20.525C66.4667 20.8417 66.0667 21 65.6 21C64.9333 21 64.3917 20.75 63.975 20.25C63.5583 19.75 63.45 19.2167 63.65 18.65C64.1167 17.25 64.9583 16.125 66.175 15.275C67.3917 14.425 68.75 14 70.25 14C72.1833 14 73.8333 14.6833 75.2 16.05C76.5667 17.4167 77.25 19.0667 77.25 21C77.25 22.9333 76.5667 24.5833 75.2 25.95C73.8333 27.3167 72.1833 28 70.25 28H45.25ZM79.15 43.4C78.4833 43.7 77.8333 43.6583 77.2 43.275C76.5667 42.8917 76.25 42.3333 76.25 41.6C76.25 41.1333 76.4083 40.7417 76.725 40.425C77.0417 40.1083 77.4 39.8333 77.8 39.6C78.2667 39.3333 78.625 38.9667 78.875 38.5C79.125 38.0333 79.25 37.5333 79.25 37C79.25 36.1667 78.9583 35.4583 78.375 34.875C77.7917 34.2917 77.0833 34 76.25 34H45.25C44.6833 34 44.2083 33.8083 43.825 33.425C43.4417 33.0417 43.25 32.5667 43.25 32C43.25 31.4333 43.4417 30.9583 43.825 30.575C44.2083 30.1917 44.6833 30 45.25 30H76.25C78.1833 30 79.8333 30.6833 81.2 32.05C82.5667 33.4167 83.25 35.0667 83.25 37C83.25 38.4 82.8833 39.675 82.15 40.825C81.4167 41.975 80.4167 42.8333 79.15 43.4Z" fill="#D9D9D9"/>
</svg>
